<?xml version="1.0" encoding="utf-8"?>
<!-- Generator: Adobe Illustrator 27.4.1, SVG Export Plug-In . SVG Version: 6.00 Build 0)  -->
<svg version="1.1" id="Layer_1" xmlns="http://www.w3.org/2000/svg" xmlns:xlink="http://www.w3.org/1999/xlink" x="0px" y="0px"
	 viewBox="0 0 1102 1102" style="enable-background:new 0 0 1102 1102;" xml:space="preserve">
<style type="text/css">
	.st0{fill-rule:evenodd;clip-rule:evenodd;}
</style>
<g>
	<path class="st0" d="M600.7,310.6c-3.1-17-6.2-32.1-9.3-49.2c-4-17.8-8.8-34.7-14.8-58L562.8,150l-27.7,46.6
		c-37,63.9-77.7,113.6-119.4,164.1c-8.5,11-17.8,23-25.5,31.3c-27.2,34.8-40.6,55-44.3,79.4c-4.6,25.2,2.2,47.5,14.7,87.5l13.4,40.9
		c24.9,76.5,87,98.1,159.6,51.1c-32.4,5.4-70.3,0.2-86.7-20.9c-20-24.5-5.6-45.6,8.7-66.6c18.6-27.5,40.8-51.4,62.1-74.5
		c23.1-24.9,45.2-48.9,63.8-76.4c11.8-16.5,18.5-32.8,20.6-50c2.2-17.1,1.7-33.3-1.4-52L600.7,310.6z M556.1,354.9
		c-0.6,9.9-4.7,19.9-13.2,31c-16.1,24.8-37.3,47.7-58.7,70.9c-27.3,29.6-55.5,59.9-77.3,96.4l-2-8.9c-10.6-33-16.3-50.7-14-64.2
		c1.4-14.4,12.4-30,34.4-57.5l0.8-0.9c10.2-11,17.8-21.2,24.6-30.4c33.2-39.5,64.6-79.1,95.1-123.1v3.6c4,16.1,7.1,29.4,9.3,45.5
		c2.2,14.3,3.4,27.7,1,37.7L556.1,354.9z"/>
	<path class="st0" d="M740.5,543.2l-13.4-40.9c-24.1-75.7-87-98.1-159.5-49.3c32.3-7.2,70.3-2,87.5,19.9c20,24.5,4.7,44.8-9.6,65.8
		c-18.6,27.5-40.8,51.4-62.9,75.4c-22.2,23.9-44.3,48-62.9,75.4c-10.9,17.4-17.5,33.8-19.6,50.8c-3.1,16.2-1.7,33.2,1.5,52
		c2.2,16.1,4.4,32.1,9.3,49.2c3.1,16.9,7.9,33.9,13.9,57l13.8,53.5l27.7-46.6c37.8-63,77.7-113.6,119.4-164.1
		c8.5-11,18.7-22.1,25.5-31.2c27.2-34.8,40.6-55,45.2-78.5c4.6-25.2-3.1-48.3-15.6-88.5H740.5z M711,623
		c-3.1,14.4-13.2,29.1-36.2,57.6c-9.3,12-17.9,21.1-25.5,31.2c-31.5,39.5-63.7,78.1-93.2,122.9l-1-4.5c-3.9-16.1-7-29.4-8.3-44.7
		c-3.1-15.1-3.3-27.7-2-38.5c0.6-10,5.6-19,13.2-31c16-24.6,37.3-47.7,57.9-69.9c28.1-30.4,55.5-59.9,78.2-97.4l2.9,9.7
		c9.6,32,16.3,50.7,14.1,64.2L711,623z"/>
</g>
</svg>
